<svg xmlns="http://www.w3.org/2000/svg" width="960" height="720" viewBox="0 0 960 720" role="img" aria-labelledby="title desc">
  <title id="title">Voluntários em ação</title>
  <desc id="desc">Ilustração de pessoas em um ambiente comunitário.</desc>
  <defs>
    <linearGradient id="bg" x1="0" x2="1">
      <stop offset="0%" stop-color="#d9f2ec"/>
      <stop offset="100%" stop-color="#f9fafb"/>
    </linearGradient>
  </defs>
  <rect width="960" height="720" fill="url(#bg)"/>
  <circle cx="760" cy="140" r="80" fill="#ffedd5"/>
  <rect x="130" y="180" width="700" height="360" rx="30" fill="#ffffff" opacity="0.95"/>
  <rect x="215" y="270" width="155" height="120" rx="18" fill="#0e7c66"/>
  <rect x="380" y="240" width="160" height="150" rx="18" fill="#0b5d4b"/>
  <rect x="560" y="300" width="150" height="90" rx="18" fill="#c2410c"/>
  <circle cx="280" cy="220" r="44" fill="#f0c7a3"/>
  <circle cx="455" cy="195" r="50" fill="#f0c7a3"/>
  <circle cx="633" cy="260" r="42" fill="#f0c7a3"/>
  <path d="M245 420c18-62 70-112 136-112s118 50 136 112" fill="#d9f2ec"/>
  <path d="M430 420c22-68 66-124 126-124 58 0 107 52 133 124" fill="#e5e7eb"/>
  <path d="M540 420c20-54 63-86 117-86 44 0 82 20 115 56" fill="#ffedd5"/>
  <rect x="120" y="560" width="150" height="18" rx="9" fill="#0e7c66" opacity="0.2"/>
  <rect x="290" y="560" width="260" height="18" rx="9" fill="#0e7c66" opacity="0.15"/>
  <rect x="575" y="560" width="170" height="18" rx="9" fill="#c2410c" opacity="0.15"/>
</svg>
